<svg width="12" height="21" viewBox="0 0 12 21" fill="none" xmlns="http://www.w3.org/2000/svg">
<path d="M7.2 9.42266V4.81246C8.58016 5.14152 9.6 6.00439 9.6 6.99622C9.6 7.64072 10.1367 8.16225 10.8 8.16225C11.4633 8.16225 12 7.64072 12 6.99622C12 4.74328 9.93592 2.85959 7.2 2.42644V1.16604C7.2 0.52153 6.66328 0 6 0C5.33672 0 4.8 0.52153 4.8 1.16604V2.42644C2.06408 2.85959 0 4.74328 0 6.99622C0 9.24916 2.06408 11.1328 4.8 11.566V16.1762C3.41984 15.8471 2.4 14.9843 2.4 13.9924C2.4 13.3479 1.86328 12.8264 1.2 12.8264C0.53672 12.8264 0 13.3479 0 13.9924C0 16.2454 2.06408 18.1291 4.8 18.5622V19.834C4.8 20.4785 5.33672 21 6 21C6.66328 21 7.2 20.4785 7.2 19.834V18.5622C9.93592 18.1291 12 16.2454 12 13.9924C12 11.7395 9.93592 9.85573 7.2 9.42266ZM2.4 6.99622C2.4 6.00439 3.41984 5.14152 4.8 4.81246V9.17997C3.41984 8.85084 2.4 7.98797 2.4 6.99622ZM7.2 16.1762V11.8087C8.58016 12.1377 9.6 13.0006 9.6 13.9924C9.6 14.9843 8.58016 15.8471 7.2 16.1762Z" fill="#1459DF"/>
</svg>
